<?xml version="1.0" encoding="utf-8"?>
<!-- Generator: Adobe Illustrator 25.2.3, SVG Export Plug-In . SVG Version: 6.00 Build 0)  -->
<svg version="1.1" id="Layer_1" xmlns="http://www.w3.org/2000/svg" xmlns:xlink="http://www.w3.org/1999/xlink" x="0px" y="0px"
	 viewBox="0 0 5000 2500" style="enable-background:new 0 0 5000 2500;" xml:space="preserve">
<style type="text/css">
	.st0{display:none;}
	.st1{fill:none;}
	.st2{fill:#C74BF6;}
	.st3{fill:#272530;}
	.st4{fill:#F320FA;}
	.st5{fill:#6E3FFF;}
	.st6{fill:url(#SVGID_1_);}
	.st7{fill:url(#SVGID_2_);}
	.st8{fill:url(#SVGID_3_);}
	.st9{fill:url(#SVGID_4_);}
	.st10{fill:url(#SVGID_5_);}
	.st11{fill:url(#SVGID_6_);}
	.st12{fill:#6E9EEB;}
	.st13{fill:url(#SVGID_7_);}
	.st14{fill:url(#SVGID_8_);}
	.st15{fill:url(#SVGID_9_);}
	.st16{fill:url(#SVGID_10_);}
	.st17{fill:url(#SVGID_11_);}
	.st18{fill:url(#SVGID_12_);}
	.st19{fill:url(#SVGID_13_);}
	.st20{fill:url(#SVGID_14_);}
	.st21{fill:url(#SVGID_15_);}
	.st22{fill:url(#SVGID_16_);}
	.st23{fill:url(#SVGID_17_);}
	.st24{fill:url(#SVGID_18_);}
	.st25{fill:url(#SVGID_19_);}
	.st26{fill:url(#SVGID_20_);}
</style>
<g id="Layer_1_1_" class="st0">
	
		<image style="display:inline;overflow:visible;enable-background:new    ;" width="1600" height="1200" xlink:href="ecada4ea8b8e1b93e2398233e1c3dc15.jpeg"  transform="matrix(2.8788 0 0 2.8788 196.9697 -477.2727)">
	</image>
</g>
<g>
	<path class="st1" d="M1874.7,574.8c0.4-5.3,0.9-10.5,1.4-15.8C1875.6,564.3,1875.1,569.6,1874.7,574.8z"/>
	<path class="st1" d="M3145.4,1348.8c4.5,0.2,9,0.4,13.5,0.7C3154.3,1349.2,3149.9,1348.9,3145.4,1348.8z"/>
	<path class="st1" d="M2170.7,1155.4c-176-109.8-294.9-304.3-297.7-524.6C1875.8,851.1,1994.6,1045.6,2170.7,1155.4z"/>
	<path class="st1" d="M3250.2,1363.4c4.2,1,8.4,2.1,12.6,3.2C3258.7,1365.5,3254.5,1364.4,3250.2,1363.4z"/>
	<path class="st1" d="M2488.3,1249.9H1250.1v-4.3c0,0-0.1,0-0.1,0v4.4h1250v0C2496.1,1250,2492.2,1249.9,2488.3,1249.9z"/>
	<path class="st1" d="M3287.7,1374c4.1,1.3,8.2,2.7,12.2,4.1C3295.9,1376.7,3291.8,1375.3,3287.7,1374z"/>
	<path class="st1" d="M3392.5,1421.3c7.3,4.3,14.5,8.8,21.5,13.4C3407,1430.1,3399.8,1425.7,3392.5,1421.3z"/>
	<path class="st1" d="M3375.9,1411.9c3.7,2,7.4,4.1,11.1,6.2C3383.4,1416,3379.7,1414,3375.9,1411.9z"/>
	<path class="st1" d="M3312,1382.6c4,1.5,8,3.1,12,4.7C3320,1385.7,3316.1,1384.1,3312,1382.6z"/>
	<path class="st1" d="M3335.8,1392.3c3.9,1.7,7.8,3.5,11.7,5.3C3343.6,1395.8,3339.7,1394,3335.8,1392.3z"/>
	<path class="st1" d="M3645.4,1955c-0.7,4.4-1.4,8.7-2.2,13C3644,1963.7,3644.8,1959.4,3645.4,1955z"/>
	<path class="st1" d="M3419.4,1438.3c3.5,2.4,7,4.8,10.4,7.2C3426.3,1443.1,3422.9,1440.7,3419.4,1438.3z"/>
	<path class="st1" d="M3648.1,1935.3c-0.5,4.4-1.1,8.8-1.7,13.2C3647,1944.1,3647.6,1939.7,3648.1,1935.3z"/>
	<path class="st1" d="M2599.6,1908.7c-0.3-4.5-0.5-9-0.7-13.5C2599.1,1899.7,2599.3,1904.2,2599.6,1908.7z"/>
	<path class="st1" d="M625.1,625l0.9-0.9c0,0,0-0.1,0-0.1l0.1,0.1l0.1-0.1l-0.1-0.1l-1.1-1.1c0,0.8,0,1.5,0,2.3
		c0,345.1-279.9,625-625,625h0.1C345.2,1250,625.1,970.1,625.1,625z"/>
	<path class="st1" d="M1877.9,543.4c-0.7,5.2-1.3,10.4-1.8,15.6C1876.6,553.9,1877.2,548.6,1877.9,543.4z"/>
	<path class="st1" d="M3650.4,1908.7c-0.4,6.7-1,13.4-1.7,20C3649.5,1922.1,3650,1915.4,3650.4,1908.7z"/>
	<path class="st1" d="M2603.6,1948.5c-0.6-4.4-1.2-8.8-1.7-13.2C2602.4,1939.7,2603,1944.1,2603.6,1948.5z"/>
	<path class="st1" d="M3643.3,1968.1c-1.5,8.6-3.3,17.2-5.3,25.7C3640,1985.3,3641.7,1976.7,3643.3,1968.1z"/>
	<path class="st1" d="M2601.2,1928.7c-0.7-6.6-1.2-13.3-1.7-20C2600,1915.4,2600.5,1922.1,2601.2,1928.7z"/>
	<path class="st1" d="M2606.7,1968.1c-0.8-4.3-1.5-8.7-2.2-13C2605.2,1959.4,2606,1963.7,2606.7,1968.1z"/>
	<path class="st1" d="M2612,1993.8c-2-8.5-3.7-17.1-5.3-25.7C2608.3,1976.7,2610,1985.3,2612,1993.8z"/>
	<path class="st1" d="M3125,2401.4c-249.9,0-459.1-174.1-513-407.6C2665.9,2227.3,2875.1,2401.4,3125,2401.4
		c249.9,0,459.1-174.1,513-407.6C3584.1,2227.3,3374.9,2401.4,3125,2401.4z"/>
	<path class="st1" d="M3648.1,1814.4c0.5,4.4,1,8.8,1.3,13.3C3649,1823.3,3648.6,1818.8,3648.1,1814.4z"/>
	<path class="st1" d="M3644.4,1788.2c1.1,6.5,2,13.1,2.9,19.6C3646.4,1801.2,3645.5,1794.7,3644.4,1788.2z"/>
	<path class="st1" d="M3639.4,1762.4c0.9,4.3,1.8,8.5,2.6,12.9C3641.3,1770.9,3640.4,1766.6,3639.4,1762.4z"/>
	<path class="st1" d="M1871.4,665.8c0.2-2.8,0.4-5.5,0.5-8.3C1871.8,660.3,1871.6,663.1,1871.4,665.8z"/>
	<path class="st1" d="M1249.4,1245.1l-0.5,0.5c0,0,0.1,0,0.1,0l0.5-0.5L626.3,624c0,0.1,0,0.2,0,0.3L1249.4,1245.1z"/>
	<path class="st1" d="M3429.8,1445.5c5.2,3.7,10.3,7.4,15.3,11.3C3440,1453,3434.9,1449.2,3429.8,1445.5z"/>
	<path class="st1" d="M3642.1,1775.2c0.8,4.3,1.6,8.6,2.3,13C3643.7,1783.8,3642.9,1779.5,3642.1,1775.2z"/>
	<path class="st1" d="M3497.3,1502.6c40.2,40.2,73.9,86.9,99.5,138.3C3571.2,1589.5,3537.5,1542.8,3497.3,1502.6z"/>
	<path class="st1" d="M3617.3,1687.8c3,8,5.9,16.1,8.6,24.3C3623.2,1704,3620.3,1695.8,3617.3,1687.8z"/>
	<path class="st1" d="M3596.8,1640.9c7.6,15.2,14.4,30.9,20.5,46.9C3611.2,1671.8,3604.3,1656.1,3596.8,1640.9z"/>
	<path class="st1" d="M3450,1460.7c5,3.9,9.9,7.9,14.7,12C3459.9,1468.6,3455,1464.6,3450,1460.7z"/>
	<path class="st1" d="M3634.9,1743.3c1.6,6.3,3.1,12.7,4.5,19.1C3638.1,1756,3636.5,1749.6,3634.9,1743.3z"/>
	<path class="st1" d="M3625.9,1712.2c3.3,10.2,6.3,20.6,9.1,31.1C3632.2,1732.8,3629.2,1722.4,3625.9,1712.2z"/>
	<path class="st1" d="M3464.7,1472.7c11.3,9.5,22.1,19.5,32.5,29.9C3486.9,1492.2,3476,1482.2,3464.7,1472.7z"/>
	<polygon class="st2" points="3750,1250 3750,2500 4375,1875 	"/>
	<polygon class="st2" points="5000,2500 5000,1250 4375,1875 	"/>
	<polygon class="st3" points="1875,1875 1562.5,2187.5 1250,2500 1870.6,2500 1872.9,2497.9 2185.4,2185.4 	"/>
	<path class="st3" d="M3125.5,1250h-625.4h-0.1v620.6V2500h1250V1250H3125.5z M3650.4,1908.7c-0.4,6.7-1,13.4-1.7,20
		c-0.2,2.2-0.5,4.4-0.7,6.6c-0.5,4.4-1.1,8.8-1.7,13.2c-0.3,2.2-0.6,4.4-1,6.5c-0.7,4.4-1.4,8.7-2.2,13c-1.5,8.6-3.3,17.2-5.3,25.7
		c-53.9,233.5-263.2,407.6-513,407.6s-459.1-174.1-513-407.6c-2-8.5-3.7-17.1-5.3-25.7c-0.8-4.3-1.5-8.7-2.2-13
		c-0.3-2.2-0.7-4.4-1-6.5c-0.6-4.4-1.2-8.8-1.7-13.2c-0.3-2.2-0.5-4.4-0.7-6.6c-0.7-6.6-1.2-13.3-1.7-20c-0.3-4.5-0.5-9-0.7-13.5
		c-0.3-6.8-0.4-13.5-0.4-20.4s0.1-13.6,0.4-20.4c0.2-4.5,0.4-9,0.7-13.5c2-31.3,6.7-61.9,13.9-91.4c1-4.2,2.1-8.4,3.2-12.6
		c1.7-6.3,3.5-12.5,5.4-18.7c2.6-8.2,5.3-16.4,8.3-24.5c0.7-2,1.5-4,2.3-6c1.5-4,3.1-8,4.7-12c4-9.9,8.4-19.7,13-29.2
		c1.8-3.8,3.7-7.6,5.7-11.4c4.8-9.5,10-18.8,15.4-27.9c81.9-138.6,225.6-236.4,393.1-255.5c8.8-1,17.7-1.8,26.6-2.4
		c11.2-0.7,22.5-1.1,33.8-1.1c6.8,0,13.6,0.1,20.4,0.4c4.5,0.2,9,0.4,13.5,0.7c31.3,2,61.9,6.7,91.4,13.9c4.2,1,8.4,2.1,12.6,3.2
		c8.4,2.3,16.7,4.7,24.9,7.4c4.1,1.3,8.2,2.7,12.2,4.1c4.1,1.4,8.1,2.9,12.1,4.4c4,1.5,8,3.1,12,4.7c4,1.6,7.9,3.3,11.8,5
		s7.8,3.5,11.7,5.3c9.7,4.5,19.1,9.3,28.5,14.4c3.7,2,7.4,4.1,11.1,6.2c1.8,1.1,3.7,2.1,5.5,3.2c7.3,4.3,14.5,8.8,21.5,13.4
		c1.8,1.2,3.5,2.3,5.3,3.5c3.5,2.4,7,4.8,10.4,7.2c5.2,3.7,10.3,7.4,15.3,11.3c1.7,1.3,3.3,2.6,5,3.9c5,3.9,9.9,7.9,14.7,12
		c11.3,9.5,22.1,19.5,32.5,29.9c40.2,40.2,73.9,86.9,99.5,138.3c7.6,15.2,14.4,30.9,20.5,46.9c3,8,5.9,16.1,8.6,24.3
		c3.3,10.2,6.3,20.6,9.1,31.1c1.6,6.3,3.1,12.7,4.5,19.1c0.9,4.3,1.8,8.5,2.6,12.9c0.8,4.3,1.6,8.6,2.3,13c1.1,6.5,2,13.1,2.9,19.6
		c0.3,2.2,0.5,4.4,0.8,6.6c0.5,4.4,1,8.8,1.3,13.3c1.4,15.5,2.1,31.3,2.1,47.2C3651.5,1886.2,3651.1,1897.5,3650.4,1908.7z"/>
	<path class="st4" d="M3308.6,808.5c-113.1,113-183,269.1-183.1,441.5H3750V625.8C3577.7,625.8,3421.7,695.6,3308.6,808.5
		L3308.6,808.5z"/>
	<path class="st4" d="M4375.5,0c0,344.9,279.6,624.5,624.5,624.5V0H4375.5z"/>
	<path class="st3" d="M4375.5,0H3750v625.8c344.8,0,624.4,279.5,624.5,624.2H5000V624.5C4655.1,624.5,4375.5,344.9,4375.5,0z"/>
	<polygon class="st5" points="1250,1875 1562.5,2187.5 1875,1875 2185.4,2185.4 2500,1870.6 2500,1250 1250,1250 	"/>
	<path class="st5" d="M3308.6,808.4c113.1-112.8,269.1-182.7,441.4-182.7V0H2500.1v0.1L3308.6,808.4z"/>
	
		<linearGradient id="SVGID_1_" gradientUnits="userSpaceOnUse" x1="2500.125" y1="1876.9375" x2="3308.5" y2="1876.9375" gradientTransform="matrix(1 0 0 -1 0 2502)">
		<stop  offset="0" style="stop-color:#7444FD"/>
		<stop  offset="1" style="stop-color:#F3A9E3"/>
	</linearGradient>
	<path class="st6" d="M2500.1,0.1v1249.7v0.1h625.4c0-172.4,70-328.5,183-441.5L2500.1,0.1z"/>
	
		<linearGradient id="SVGID_2_" gradientUnits="userSpaceOnUse" x1="2500" y1="1252.0004" x2="3308.625" y2="1252.0004" gradientTransform="matrix(1 0 0 -1 0 2502)">
		<stop  offset="0" style="stop-color:#7444FD"/>
		<stop  offset="1" style="stop-color:#F3A9E3"/>
	</linearGradient>
	<path class="st7" d="M2500,1250h0.1C2500.1,1250,2500,1250,2500,1250L2500,1250z"/>
	<path class="st4" d="M3308.6,808.4C3308.5,808.5,3308.5,808.5,3308.6,808.4c-113.1,113.1-183.1,269.2-183.1,441.6
		C3125.6,1077.6,3195.5,921.5,3308.6,808.4L3308.6,808.4z"/>
	
		<linearGradient id="SVGID_3_" gradientUnits="userSpaceOnUse" x1="2500" y1="1472.781" x2="3308.625" y2="1472.781" gradientTransform="matrix(1 0 0 -1 0 2502)">
		<stop  offset="0" style="stop-color:#7444FD"/>
		<stop  offset="1" style="stop-color:#F3A9E3"/>
	</linearGradient>
	<path class="st8" d="M3308.6,808.4C3308.5,808.5,3308.5,808.5,3308.6,808.4c-113.1,113.1-183.1,269.2-183.1,441.6
		C3125.6,1077.6,3195.5,921.5,3308.6,808.4L3308.6,808.4z"/>
	<path class="st5" d="M3308.6,808.4L2500.1,0.1l0,0L3308.6,808.4C3308.5,808.5,3308.5,808.5,3308.6,808.4z"/>
	
		<linearGradient id="SVGID_4_" gradientUnits="userSpaceOnUse" x1="2500.125" y1="2097.6875" x2="3308.563" y2="2097.6875" gradientTransform="matrix(1 0 0 -1 0 2502)">
		<stop  offset="0" style="stop-color:#7444FD"/>
		<stop  offset="1" style="stop-color:#F3A9E3"/>
	</linearGradient>
	<path class="st9" d="M3308.6,808.4L2500.1,0.1l0,0L3308.6,808.4C3308.5,808.5,3308.5,808.5,3308.6,808.4z"/>
	
		<linearGradient id="SVGID_5_" gradientUnits="userSpaceOnUse" x1="3750" y1="939.5" x2="5000" y2="939.5" gradientTransform="matrix(1 0 0 -1 0 2502)">
		<stop  offset="0" style="stop-color:#F3A9E3"/>
		<stop  offset="1" style="stop-color:#7444FD"/>
	</linearGradient>
	<polygon class="st10" points="3750,1250 4375,1875 5000,1250 4374.5,1250 	"/>
	
		<linearGradient id="SVGID_6_" gradientUnits="userSpaceOnUse" x1="3750" y1="314.5" x2="5000" y2="314.5" gradientTransform="matrix(1 0 0 -1 0 2502)">
		<stop  offset="0" style="stop-color:#F3A9E3"/>
		<stop  offset="1" style="stop-color:#7444FD"/>
	</linearGradient>
	<polygon class="st11" points="3750,2500 5000,2500 4375,1875 	"/>
	<path class="st12" d="M4374.5,1250c-0.1-344.8-279.8-624.2-624.5-624.2V1250H4374.5z"/>
	<polygon class="st4" points="2185.4,2185.4 1872.9,2497.9 1875,2500 2500,2500 2500,1870.6 	"/>
	<path class="st2" d="M1874.7,574.8c-1.2,15.8-1.8,31.8-1.8,47.9c0,2.7,0,5.4,0.1,8.1c2.8,220.2,121.7,414.7,297.7,524.6
		c96,59.9,209,94.6,329.5,94.5V0.1l0,0V0h-0.1h-4.2c-317.2,0-578.9,237-617.9,543.4c-0.7,5.2-1.3,10.4-1.8,15.6
		C1875.6,564.3,1875.1,569.6,1874.7,574.8z"/>
	<path class="st2" d="M2488.3,1249.9c3.9,0.1,7.8,0.1,11.7,0.1c0,0,0.1,0,0.1,0v-0.1H2488.3z"/>
	<path class="st12" d="M2488.3,1249.9h11.8c-120.5,0-233.5-34.7-329.5-94.5c-176.1-109.8-294.9-304.3-297.7-524.6
		c0-2.7-0.1-5.4-0.1-8.1c0,2.7,0,5.4-0.1,8.1c-0.1,9-0.4,17.9-0.9,26.7c-0.2,2.8-0.3,5.5-0.5,8.3
		c-22.1,323.9-291.8,579.7-621.3,579.8v4.3H2488.3z"/>
	<path class="st12" d="M1872.9,622.7c0-16.1,0.6-32.1,1.8-47.9c0.4-5.3,0.9-10.5,1.4-15.8c0.5-5.2,1.1-10.4,1.8-15.6
		C1916.8,237,2178.5,0,2495.6,0H1250C1594,0,1872.9,278.9,1872.9,622.7z"/>
	<polygon class="st12" points="1250,1875 1250,2500 1562.5,2187.5 	"/>
	<polygon class="st4" points="1250,1250 625.1,1250 625,1250 0.1,1250 0,1250 625,2500 625,1250.4 1250,2500 1250,1875 	"/>
	<path class="st5" d="M626.3,624L626.3,624l-0.2,0.1l0.2,0.2C626.3,624.2,626.3,624.1,626.3,624z"/>
	<path class="st5" d="M1249.5,1245.1l-0.5,0.5c0,0-0.1,0-0.1,0l0,0c-343.6,0-622.1-278.2-622.9-621.5l-0.9,0.9
		c0,345.1-279.9,625-625,625H625h0.1H1250v-4.4L1249.5,1245.1z"/>
	<polygon class="st2" points="626.2,623.9 626.3,624 1249.5,1245.1 1250,1245.6 1250,0 626.1,623.9 	"/>
	<path class="st3" d="M626.1,622.7c0,0.4,0,0.8,0,1.1L1250,0h-1.1C904.9,0,626.1,278.9,626.1,622.7z"/>
	<path class="st3" d="M1248.9,1245.6L1248.9,1245.6l0.5-0.5L626.3,624.3l-0.2-0.2L626,624c0,0,0,0.1,0,0.1
		C626.8,967.4,905.3,1245.6,1248.9,1245.6z"/>
	<path class="st5" d="M625,622.7l1.1,1.1c0-0.4,0-0.8,0-1.1C626.1,278.9,904.9,0,1248.9,0H0C344.5,0,623.8,278.6,625,622.7z"/>
	
		<linearGradient id="SVGID_7_" gradientUnits="userSpaceOnUse" x1="3125" y1="100.6252" x2="3125" y2="1153.625" gradientTransform="matrix(1 0 0 -1 0 2502)">
		<stop  offset="0" style="stop-color:#28C5FD"/>
		<stop  offset="0.8257" style="stop-color:#9C3CFE"/>
	</linearGradient>
	<path class="st13" d="M3648.1,1814.4c-0.3-2.2-0.5-4.4-0.8-6.6c-0.8-6.6-1.8-13.1-2.9-19.6c-0.7-4.3-1.5-8.7-2.3-13
		c-0.8-4.3-1.7-8.6-2.6-12.9c-1.4-6.4-2.9-12.8-4.5-19.1c-2.7-10.5-5.7-20.9-9.1-31.1c-2.7-8.2-5.5-16.3-8.6-24.3
		c-6.1-16-13-31.7-20.5-46.9c-25.6-51.4-59.3-98.1-99.5-138.3c-10.4-10.4-21.3-20.4-32.5-29.9c-4.8-4.1-9.7-8.1-14.7-12
		c-1.7-1.3-3.3-2.6-5-3.9c-5-3.8-10.1-7.6-15.3-11.3c-3.4-2.4-6.9-4.9-10.4-7.2c-1.8-1.2-3.5-2.4-5.3-3.5
		c-7.1-4.6-14.2-9.1-21.5-13.4c-1.8-1.1-3.7-2.1-5.5-3.2c-3.7-2.1-7.4-4.2-11.1-6.2c-9.3-5.1-18.8-9.9-28.5-14.4
		c-3.9-1.8-7.7-3.6-11.7-5.3s-7.8-3.4-11.8-5c-4-1.6-7.9-3.2-12-4.7c-4-1.5-8-3-12.1-4.4c-4.1-1.4-8.1-2.8-12.2-4.1
		c-8.2-2.7-16.5-5.1-24.9-7.4c-4.2-1.1-8.4-2.2-12.6-3.2c-29.6-7.2-60.1-11.9-91.4-13.9c-4.5-0.3-9-0.5-13.5-0.7
		c-6.8-0.3-13.5-0.4-20.4-0.4c-11.4,0-22.6,0.4-33.8,1.1c-8.9,0.6-17.8,1.4-26.6,2.4c-167.5,19.2-311.1,116.9-393.1,255.5
		c-5.4,9.1-10.5,18.4-15.4,27.9c-1.9,3.8-3.8,7.6-5.7,11.4c-4.6,9.6-9,19.3-13,29.2c-1.6,4-3.2,7.9-4.7,12c-0.8,2-1.5,4-2.3,6
		c-3,8.1-5.7,16.2-8.3,24.5c-1.9,6.2-3.7,12.4-5.4,18.7c-1.1,4.2-2.2,8.4-3.2,12.6c-7.2,29.6-11.9,60.1-13.9,91.4
		c-0.3,4.5-0.5,9-0.7,13.5c-0.3,6.8-0.4,13.5-0.4,20.4s0.1,13.6,0.4,20.4c0.2,4.5,0.4,9,0.7,13.5c0.4,6.7,1,13.4,1.7,20
		c0.2,2.2,0.5,4.4,0.7,6.6c0.5,4.4,1.1,8.8,1.7,13.2c0.3,2.2,0.6,4.4,1,6.5c0.7,4.4,1.4,8.7,2.2,13c1.5,8.6,3.3,17.2,5.3,25.7
		c53.9,233.5,263.2,407.6,513,407.6s459.1-174.1,513-407.6c2-8.5,3.7-17.1,5.3-25.7c0.8-4.3,1.5-8.7,2.2-13c0.3-2.2,0.7-4.4,1-6.5
		c0.6-4.4,1.2-8.8,1.7-13.2c0.3-2.2,0.5-4.4,0.7-6.6c0.7-6.6,1.2-13.3,1.7-20c0.7-11.2,1.1-22.5,1.1-33.8c0-15.9-0.7-31.6-2.1-47.2
		C3649,1823.3,3648.6,1818.8,3648.1,1814.4z"/>
	<path class="st3" d="M2632.7,1687.8c1.5-4,3.1-8,4.7-12C2635.8,1679.8,2634.2,1683.8,2632.7,1687.8z"/>
	
		<linearGradient id="SVGID_8_" gradientUnits="userSpaceOnUse" x1="2635.0588" y1="100.6252" x2="2635.0588" y2="1153.625" gradientTransform="matrix(1 0 0 -1 0 2502)">
		<stop  offset="0" style="stop-color:#28C5FD"/>
		<stop  offset="0.8257" style="stop-color:#9C3CFE"/>
	</linearGradient>
	<path class="st14" d="M2632.7,1687.8c1.5-4,3.1-8,4.7-12C2635.8,1679.8,2634.2,1683.8,2632.7,1687.8z"/>
	<path class="st3" d="M2637.4,1675.9c4-9.9,8.4-19.7,13-29.2C2645.8,1656.2,2641.5,1666,2637.4,1675.9z"/>
	
		<linearGradient id="SVGID_9_" gradientUnits="userSpaceOnUse" x1="2643.9199" y1="100.6252" x2="2643.9199" y2="1153.625" gradientTransform="matrix(1 0 0 -1 0 2502)">
		<stop  offset="0" style="stop-color:#28C5FD"/>
		<stop  offset="0.8257" style="stop-color:#9C3CFE"/>
	</linearGradient>
	<path class="st15" d="M2637.4,1675.9c4-9.9,8.4-19.7,13-29.2C2645.8,1656.2,2641.5,1666,2637.4,1675.9z"/>
	<path class="st3" d="M2598.9,1854.5c0.2-4.5,0.4-9,0.7-13.5C2599.3,1845.5,2599.1,1850,2598.9,1854.5z"/>
	
		<linearGradient id="SVGID_10_" gradientUnits="userSpaceOnUse" x1="2599.2273" y1="100.6252" x2="2599.2273" y2="1153.625" gradientTransform="matrix(1 0 0 -1 0 2502)">
		<stop  offset="0" style="stop-color:#28C5FD"/>
		<stop  offset="0.8257" style="stop-color:#9C3CFE"/>
	</linearGradient>
	<path class="st16" d="M2598.9,1854.5c0.2-4.5,0.4-9,0.7-13.5C2599.3,1845.5,2599.1,1850,2598.9,1854.5z"/>
	<path class="st3" d="M2622.2,1718.3c2.6-8.2,5.3-16.4,8.3-24.5C2627.5,1701.9,2624.7,1710.1,2622.2,1718.3z"/>
	
		<linearGradient id="SVGID_11_" gradientUnits="userSpaceOnUse" x1="2626.312" y1="100.6252" x2="2626.312" y2="1153.625" gradientTransform="matrix(1 0 0 -1 0 2502)">
		<stop  offset="0" style="stop-color:#28C5FD"/>
		<stop  offset="0.8257" style="stop-color:#9C3CFE"/>
	</linearGradient>
	<path class="st17" d="M2622.2,1718.3c2.6-8.2,5.3-16.4,8.3-24.5C2627.5,1701.9,2624.7,1710.1,2622.2,1718.3z"/>
	<path class="st3" d="M3064.5,1351.8c-167.5,19.2-311.1,116.9-393.1,255.5C2753.4,1468.7,2897,1371,3064.5,1351.8z"/>
	
		<linearGradient id="SVGID_12_" gradientUnits="userSpaceOnUse" x1="2868.0059" y1="100.6252" x2="2868.0059" y2="1153.625" gradientTransform="matrix(1 0 0 -1 0 2502)">
		<stop  offset="0" style="stop-color:#28C5FD"/>
		<stop  offset="0.8257" style="stop-color:#9C3CFE"/>
	</linearGradient>
	<path class="st18" d="M3064.5,1351.8c-167.5,19.2-311.1,116.9-393.1,255.5C2753.4,1468.7,2897,1371,3064.5,1351.8z"/>
	<path class="st3" d="M2613.5,1749.6c1-4.2,2.1-8.4,3.2-12.6C2615.6,1741.2,2614.5,1745.4,2613.5,1749.6z"/>
	
		<linearGradient id="SVGID_13_" gradientUnits="userSpaceOnUse" x1="2615.1152" y1="100.6252" x2="2615.1152" y2="1153.625" gradientTransform="matrix(1 0 0 -1 0 2502)">
		<stop  offset="0" style="stop-color:#28C5FD"/>
		<stop  offset="0.8257" style="stop-color:#9C3CFE"/>
	</linearGradient>
	<path class="st19" d="M2613.5,1749.6c1-4.2,2.1-8.4,3.2-12.6C2615.6,1741.2,2614.5,1745.4,2613.5,1749.6z"/>
	<path class="st3" d="M2656.1,1635.2c4.8-9.5,10-18.8,15.4-27.9C2666.1,1616.4,2660.9,1625.7,2656.1,1635.2z"/>
	
		<linearGradient id="SVGID_14_" gradientUnits="userSpaceOnUse" x1="2663.7839" y1="100.6252" x2="2663.7839" y2="1153.625" gradientTransform="matrix(1 0 0 -1 0 2502)">
		<stop  offset="0" style="stop-color:#28C5FD"/>
		<stop  offset="0.8257" style="stop-color:#9C3CFE"/>
	</linearGradient>
	<path class="st20" d="M2656.1,1635.2c4.8-9.5,10-18.8,15.4-27.9C2666.1,1616.4,2660.9,1625.7,2656.1,1635.2z"/>
	<path class="st3" d="M3064.5,1351.8c8.8-1,17.7-1.8,26.6-2.4C3082.2,1350,3073.4,1350.8,3064.5,1351.8z"/>
	
		<linearGradient id="SVGID_15_" gradientUnits="userSpaceOnUse" x1="3077.8691" y1="100.6252" x2="3077.8691" y2="1153.625" gradientTransform="matrix(1 0 0 -1 0 2502)">
		<stop  offset="0" style="stop-color:#28C5FD"/>
		<stop  offset="0.8257" style="stop-color:#9C3CFE"/>
	</linearGradient>
	<path class="st21" d="M3064.5,1351.8c8.8-1,17.7-1.8,26.6-2.4C3082.2,1350,3073.4,1350.8,3064.5,1351.8z"/>
	
		<linearGradient id="SVGID_16_" gradientUnits="userSpaceOnUse" x1="1561.4375" y1="1256.375" x2="1561.4375" y2="2502" gradientTransform="matrix(1 0 0 -1 0 2502)">
		<stop  offset="0" style="stop-color:#28C5FD"/>
		<stop  offset="0.8257" style="stop-color:#9C3CFE"/>
	</linearGradient>
	<path class="st22" d="M1250.1,1245.6v-0.1c329.4,0,599.1-255.8,621.3-579.7c0.2-2.8,0.4-5.5,0.5-8.3c0.5-8.9,0.8-17.8,0.9-26.7
		c0-2.7,0.1-5.4,0.1-8.1C1872.9,278.9,1594,0,1250,0v1245.6C1250,1245.6,1250.1,1245.6,1250.1,1245.6z"/>
	<path class="st12" d="M1871.9,657.5c0.5-8.9,0.8-17.8,0.9-26.7C1872.7,639.8,1872.4,648.7,1871.9,657.5z"/>
	
		<linearGradient id="SVGID_17_" gradientUnits="userSpaceOnUse" x1="1872.3663" y1="1256.375" x2="1872.3663" y2="2502" gradientTransform="matrix(1 0 0 -1 0 2502)">
		<stop  offset="0" style="stop-color:#28C5FD"/>
		<stop  offset="0.8257" style="stop-color:#9C3CFE"/>
	</linearGradient>
	<path class="st23" d="M1871.9,657.5c0.5-8.9,0.8-17.8,0.9-26.7C1872.7,639.8,1872.4,648.7,1871.9,657.5z"/>
	<path class="st12" d="M1871.4,665.8c-22.1,323.9-291.9,579.7-621.3,579.7v0.1C1579.6,1245.6,1849.3,989.7,1871.4,665.8z"/>
	
		<linearGradient id="SVGID_18_" gradientUnits="userSpaceOnUse" x1="1560.761" y1="1256.3757" x2="1560.761" y2="2502.0007" gradientTransform="matrix(1 0 0 -1 0 2502)">
		<stop  offset="0" style="stop-color:#28C5FD"/>
		<stop  offset="0.8257" style="stop-color:#9C3CFE"/>
	</linearGradient>
	<path class="st24" d="M1871.4,665.8c-22.1,323.9-291.9,579.7-621.3,579.7v0.1C1579.6,1245.6,1849.3,989.7,1871.4,665.8z"/>
	
		<linearGradient id="SVGID_19_" gradientUnits="userSpaceOnUse" x1="937.5" y1="2" x2="937.5" y2="1251.625" gradientTransform="matrix(1 0 0 -1 0 2502)">
		<stop  offset="0" style="stop-color:#28C5FD"/>
		<stop  offset="0.8257" style="stop-color:#9C3CFE"/>
	</linearGradient>
	<polygon class="st25" points="625,2500 1250,2500 625,1250.4 	"/>
	
		<linearGradient id="SVGID_20_" gradientUnits="userSpaceOnUse" x1="312.5" y1="2" x2="312.5" y2="1252" gradientTransform="matrix(1 0 0 -1 0 2502)">
		<stop  offset="0" style="stop-color:#28C5FD"/>
		<stop  offset="0.8257" style="stop-color:#9C3CFE"/>
	</linearGradient>
	<polygon class="st26" points="0,2500 625,2500 0,1250 	"/>
	<path class="st3" d="M625,622.7L0,0v1250l625-625C625,624.2,625,623.5,625,622.7z"/>
	<path class="st2" d="M625,625L0,1250C345.1,1250,625,970.1,625,625z"/>
	<path class="st2" d="M0,0l625,622.7C623.8,278.6,344.5,0,0,0z"/>
</g>
</svg>
